<svg preserveAspectRatio="none" overflow="hidden" xmlns="http://www.w3.org/2000/svg" viewBox="0 86 244 54"><g transform="matrix(1 0 0 1 0 0)">

  <!-- Generator: Adobe Illustrator 30.6.0, SVG Export Plug-In . SVG Version: 2.1.4 Build 109)  -->
  <defs>
    <style>
      .st0 {
        fill: none;
      }
    </style>
  </defs>
  <path class="st0" d="M26.3544922,133.5644531c6.4804688-3.2402344,9.8647461-10.5849609,9.8647461-21.3134766-.0717773-11.8808594-5.2563477-18.5058594-12.2412109-20.8105469-2.5200195-.8632812-5.5444336-1.2236328-11.0888672-1.2236328H2.9526367v45.5800781h8.2807617c4.5361328,0,10.6567383,0,15.1210938-2.2324219Z"/>
  <path class="st0" d="M78.8427734,100.4414062c0-1.1523438-.1435547-4.2480469-2.0878906-6.5527344-2.8803711-3.3837891-8.4248047-3.5283203-11.809082-3.5283203h-11.7368164v21.9619141h9.2167969c7.3442383,0,16.4169922-.8632812,16.4169922-11.8808594Z"/>
  <polygon class="st0" points="365.0424805 14.0410156 359.7866211 31.6826172 370.2270508 31.6826172 365.0424805 14.0410156"/>
  <path class="st0" d="M273.2456055,27.0742188c0-8.5683594-3.1679688-17.3535156-13.2490234-17.3535156-9.3603516,0-13.1767578,8.640625-13.1767578,16.8496094,0,8.2802734,3.7441406,16.921875,13.2490234,16.921875,8.9287109,0,13.1767578-7.7050781,13.1767578-16.4179688Z"/>
  <polygon points=".0541992 52.0273438 3.0786133 52.0273438 3.0786133 27.9775391 24.5361328 27.9775391 24.5361328 25.4570312 3.0786133 25.4570312 3.0786133 3.8554688 25.9042969 3.8554688 25.9042969 1.1914062 .0541992 1.1914062 .0541992 52.0273438"/>
  <path d="M51.1030273,52.8193359c12.3847656,0,16.8491211-8.1367188,16.8491211-16.8496094V1.1914062h-2.9521484v33.4824219c0,11.8808594-5.9765625,15.265625-14.4731445,15.265625-6.984375,0-13.8251953-3.0966797-13.8251953-14.8339844V1.1914062h-3.0244141v33.3388672c0,9.7207031,3.5283203,18.2890625,17.4257812,18.2890625Z"/>
  <path d="M118.4506836,52.0605469V1.2246094h-4.6083984s0,35.1386719.2158203,43.5634766L86.0478516,1.2246094h-5.1845703v50.8359375h4.6083984s0-34.203125-.5039062-44.5l28.8745117,44.5h4.6083984Z"/>
  <path d="M170.6489258,37.0830078l-5.0405273-.7919922c-1.0800781,7.7050781-7.128418,12.2412109-14.7612305,12.2412109-12.2407227,0-16.7050781-11.3769531-16.7050781-22.0341797,0-10.5126953,4.4643555-21.7451172,16.6333008-21.7451172,7.4887695,0,12.9609375,4.8242188,14.0410156,12.1689453l5.112793-.8642578c-1.512207-9.7929688-9.0727539-15.7695312-18.9379883-15.7695312-8.496582,0-22.105957,4.8242188-22.105957,26.4267578,0,13.7529297,6.480957,26.2099609,21.7460938,26.2099609,10.3686523,0,17.8574219-5.6162109,20.0175781-15.8417969Z"/>
  <polygon points="211.9750977 1.2246094 174.7485352 1.2246094 174.7485352 7.4169922 190.0136719 7.4169922 190.0136719 52.0605469 196.8540039 52.0605469 196.8540039 7.4169922 211.9750977 7.4169922 211.9750977 1.2246094"/>
  <rect x="219.2436523" y="1.2246094" width="6.7685547" height="50.8359375"/>
  <path d="M285.2709961,26.4980469c0-15.3369141-9.5048828-26.4980469-25.2744141-26.4980469-15.8408203,0-25.1298828,11.3769531-25.1298828,26.7148438,0,14.8330078,9.4326172,26.4980469,24.8417969,26.4980469,15.6972656,0,25.5625-11.3769531,25.5625-26.7148438ZM246.8198242,26.5703125c0-8.2089844,3.8164062-16.8496094,13.1767578-16.8496094,10.0810547,0,13.2490234,8.7851562,13.2490234,17.3535156,0,8.7128906-4.2480469,16.4179688-13.1767578,16.4179688-9.5048828,0-13.2490234-8.6416016-13.2490234-16.921875Z"/>
  <path d="M333.8696289,52.0605469V1.2246094h-11.1611328s.5039062,24.9140625.7197266,33.4101562L303.6987305,1.2246094h-11.0166016v50.8359375h11.3769531c-.2880859-11.8085938-.8642578-32.9785156-.8642578-32.9785156l19.9462891,32.9785156h10.7285156Z"/>
  <path d="M353.8813477,52.0605469l2.7363281-9.5048828h16.8496094l2.8085938,9.5048828h15.0488281L373.2514648,1.2246094h-16.1289062l-18.2900391,50.8359375h15.0488281ZM365.0424805,14.0410156l5.1845703,17.6416016h-10.4404297l5.2558594-17.6416016Z"/>
  <polygon points="395.4956055 1.2246094 395.4956055 52.0605469 432.362793 52.0605469 432.362793 39.171875 412.777832 39.171875 412.777832 1.2246094 395.4956055 1.2246094"/>
  <path d="M0,138.4609375h14.2573242c4.3203125,0,9.2890625-.2880859,13.609375-2.4482422,9.7207031-4.8964844,11.5209961-16.3457031,11.5209961-23.4023438,0-6.9121094-2.2324219-18.8652344-12.6733398-23.1132812-4.0322266-1.65625-9.2167969-1.8720703-11.4487305-1.8720703H0v50.8359375ZM2.9526367,90.2167969h9.9365234c5.5444336,0,8.5688477.3603516,11.0888672,1.2236328,6.9848633,2.3046875,12.1694336,8.9296875,12.2412109,20.8105469,0,10.7285156-3.3842773,18.0732422-9.8647461,21.3134766-4.4643555,2.2324219-10.5849609,2.2324219-15.1210938,2.2324219H2.9526367v-45.5800781Z"/>
  <path d="M53.2089844,115.0585938h11.0888672c7.8486328,0,10.296875,1.8720703,11.7368164,4.3203125,2.0161133,3.3847656,1.65625,13.3212891,3.8881836,19.0820312h3.6723633c-2.1601562-4.4648438-2.0161133-5.9042969-2.9521484-13.609375-.8637695-6.9121094-2.3759766-10.9443359-10.440918-11.1611328,5.6166992-.8632812,11.809082-3.7441406,11.809082-13.3203125,0-2.5927734-.7919922-4.6083984-1.2241211-5.6171875-3.1679688-6.8408203-10.8730469-7.1279297-15.9130859-7.1279297h-14.6176758v50.8359375h2.9526367v-23.4023438ZM53.2089844,90.3603516h11.7368164c3.3842773,0,8.9287109.1445312,11.809082,3.5283203,1.9443359,2.3046875,2.0878906,5.4003906,2.0878906,6.5527344,0,11.0175781-9.0727539,11.8808594-16.4169922,11.8808594h-9.2167969v-21.9619141Z"/>
  <rect x="94.2539062" y="87.625" width="4.8964844" height="50.8359375"/>
  <path d="M115.7094727,93.9609375l28.8745117,44.5h4.6083984v-50.8359375h-4.6083984s0,35.1386719.2158203,43.5634766l-28.0102539-43.5634766h-5.1845703v50.8359375h4.6083984s0-34.203125-.5039062-44.5Z"/>
  <polygon points="168.1962891 121.5390625 176.4770508 113.4746094 195.6303711 138.4609375 204.7036133 138.4609375 181.3012695 108.7939453 202.6870117 87.625 193.6860352 87.625 168.1962891 113.4746094 168.1962891 87.625 161.5 87.625 161.5 138.4609375 168.1962891 138.4609375 168.1962891 121.5390625"/>
  <path d="M226.0131836,133.2041016c-8.2089844,0-12.6738281-3.5996094-13.4658203-11.7363281l-6.984375.9355469c1.0078125,11.7373047,8.8564453,16.7060547,19.9453125,16.7060547,9.2167969,0,18.2900391-4.3925781,18.2900391-14.7617188,0-11.0888672-8.640625-13.609375-17.2099609-16.1289062l-1.9433594-.5761719c-6.9853516-2.0888672-9.2890625-2.8085938-9.2890625-7.3447266,0-5.5449219,4.8964844-7.5605469,9.7207031-7.5605469,6.7685547,0,10.7285156,3.0244141,11.4492188,9.7929688l6.6962891-.7929688c-.1435547-2.9521484-1.0078125-5.4716797-2.5917969-7.9921875-3.4570312-5.5449219-9.7929688-6.8408203-15.9140625-6.8408203-7.9199219,0-16.5615234,3.7441406-16.5615234,13.8251953,0,5.7607422,2.2324219,10.296875,11.2333984,12.8896484l5.9765625,1.7275391c5.0400391,1.4404297,11.3769531,3.0966797,11.3769531,9.5048828,0,5.9042969-5.5449219,8.3525391-10.7285156,8.3525391Z"/>
</g></svg>